<svg xmlns="http://www.w3.org/2000/svg" viewBox="0 0 345 84" width="345" height="84" role="img" aria-label="BolusWealth"><svg x="8" y="12" width="60" height="60" viewBox="0 0 64 64" overflow="visible">
  <defs>
    <linearGradient id="bwTile" x1="0" y1="0" x2="0" y2="1">
      <stop offset="0" stop-color="#161f33"/>
      <stop offset="1" stop-color="#090d16"/>
    </linearGradient>
    <linearGradient id="bwGrn" x1="0.15" y1="1" x2="0.9" y2="0">
      <stop offset="0" stop-color="#10b981"/>
      <stop offset="0.55" stop-color="#34d399"/>
      <stop offset="1" stop-color="#6ee7b7"/>
    </linearGradient>
    <filter id="bwGlow" x="-30%" y="-30%" width="160%" height="160%">
      <feGaussianBlur stdDeviation="1.6" result="b"/>
      <feMerge><feMergeNode in="b"/><feMergeNode in="SourceGraphic"/></feMerge>
    </filter>
  </defs>

  <rect x="2" y="2" width="60" height="60" rx="15" fill="url(#bwTile)"/>
  <rect x="2.5" y="2.5" width="59" height="59" rx="14.5" fill="none" stroke="#ffffff" stroke-opacity="0.10"/>

  <!-- faint index wave (tops & bottoms) -->
  <path d="M11 37 L19 31 L26 41 L34 25 L42 38 L53 19" fill="none"
        stroke="#2d3c59" stroke-width="2.2" stroke-linecap="round" stroke-linejoin="round" opacity="0.7"/>
  <!-- a top marker on the faint wave -->
  <circle cx="34" cy="25" r="2.2" fill="#f87171" opacity="0.8"/>

  <!-- main growth line: dip to bottom, then surge up-right -->
  <g filter="url(#bwGlow)">
    <path d="M13 28 L25 45 L51 13" fill="none" stroke="url(#bwGrn)"
          stroke-width="5" stroke-linecap="round" stroke-linejoin="round"/>
    <!-- arrowhead barbs at the tip -->
    <path d="M51 13 L41.6 16.6 M51 13 L49.4 22.9" fill="none" stroke="url(#bwGrn)"
          stroke-width="5" stroke-linecap="round" stroke-linejoin="round"/>
  </g>

  <!-- bottom pivot node (the "buy") -->
  <circle cx="25" cy="45" r="4.6" fill="#090d16" stroke="#34d399" stroke-width="3.2"/>
</svg><path d="M90.132 24.32H98.764Q103.184 24.32 105.21199999999999 26.374Q107.24 28.427999999999997 107.24 32.692V34.147999999999996Q107.24 36.956 106.33 38.724000000000004Q105.42 40.492000000000004 103.548 41.272V41.376000000000005Q107.812 42.832 107.812 48.968V52.088Q107.812 56.3 105.602 58.51Q103.392 60.72 99.128 60.72H90.132ZM98.088 39.14Q99.804 39.14 100.662 38.256Q101.52 37.372 101.52 35.292V33.263999999999996Q101.52 31.288 100.818 30.404Q100.116 29.52 98.608 29.52H95.852V39.14ZM99.128 55.519999999999996Q100.636 55.519999999999996 101.364 54.714Q102.092 53.908 102.092 51.932V48.76Q102.092 46.263999999999996 101.23400000000001 45.302Q100.376 44.34 98.4 44.34H95.852V55.519999999999996Z" fill="#dce5f5"/><path d="M111.92399999999999 52.088V32.952Q111.92399999999999 28.584000000000003 114.16 26.192Q116.396 23.799999999999997 120.608 23.799999999999997Q124.82 23.799999999999997 127.056 26.192Q129.292 28.584000000000003 129.292 32.952V52.088Q129.292 56.455999999999996 127.056 58.848Q124.82 61.24 120.608 61.24Q116.396 61.24 114.16 58.848Q111.92399999999999 56.455999999999996 111.92399999999999 52.088ZM123.572 52.452V32.588Q123.572 29.0 120.608 29.0Q117.644 29.0 117.644 32.588V52.452Q117.644 56.04 120.608 56.04Q123.572 56.04 123.572 52.452Z" fill="#dce5f5"/><path d="M134.34 24.32H140.06V55.519999999999996H149.472V60.72H134.34Z" fill="#dce5f5"/><path d="M153.22 52.088V24.32H158.94V52.504Q158.94 54.376 159.694 55.208Q160.44799999999998 56.04 161.852 56.04Q163.256 56.04 164.01 55.208Q164.76399999999998 54.376 164.76399999999998 52.504V24.32H170.27599999999998V52.088Q170.27599999999998 56.507999999999996 168.09199999999998 58.873999999999995Q165.908 61.24 161.748 61.24Q157.588 61.24 155.404 58.873999999999995Q153.22 56.507999999999996 153.22 52.088Z" fill="#dce5f5"/><path d="M174.54399999999998 52.088V50.007999999999996H179.95199999999997V52.504Q179.95199999999997 56.04 182.91599999999997 56.04Q184.37199999999999 56.04 185.12599999999998 55.182Q185.87999999999997 54.324 185.87999999999997 52.4Q185.87999999999997 50.112 184.83999999999997 48.370000000000005Q183.79999999999998 46.628 180.992 44.184Q177.456 41.064 176.05199999999996 38.542Q174.64799999999997 36.019999999999996 174.64799999999997 32.848Q174.64799999999997 28.532000000000004 176.83199999999997 26.166Q179.01599999999996 23.799999999999997 183.176 23.799999999999997Q187.28399999999996 23.799999999999997 189.39 26.166Q191.49599999999998 28.532000000000004 191.49599999999998 32.952V34.46H186.08799999999997V32.588Q186.08799999999997 30.716 185.35999999999996 29.858Q184.63199999999998 29.0 183.22799999999998 29.0Q180.36799999999997 29.0 180.36799999999997 32.484Q180.36799999999997 34.46 181.43399999999997 36.176Q182.49999999999997 37.891999999999996 185.30799999999996 40.336Q188.896 43.456 190.248 46.004000000000005Q191.59999999999997 48.552 191.59999999999997 51.984Q191.59999999999997 56.455999999999996 189.39 58.848Q187.17999999999998 61.24 182.968 61.24Q178.80799999999996 61.24 176.676 58.873999999999995Q174.54399999999998 56.507999999999996 174.54399999999998 52.088Z" fill="#dce5f5"/><path d="M200.96399999999997 24.32H206.47599999999997L209.02399999999997 52.296H209.12799999999996L211.83199999999997 24.32H218.07199999999997L220.77599999999995 52.296H220.87999999999997L223.42799999999997 24.32H228.36799999999997L224.67599999999996 60.72H217.55199999999996L214.95199999999997 36.176H214.84799999999996L212.24799999999996 60.72H204.65599999999998Z" fill="#34d399"/><path d="M232.47999999999996 24.32H248.07999999999996V29.52H238.19999999999996V39.14H246.05199999999996V44.34H238.19999999999996V55.519999999999996H248.07999999999996V60.72H232.47999999999996Z" fill="#34d399"/><path d="M256.97599999999994 24.32H264.72399999999993L270.65199999999993 60.72H264.93199999999996L263.89199999999994 53.492V53.596H257.39199999999994L256.352 60.72H251.04799999999994ZM263.21599999999995 48.656 260.66799999999995 30.664H260.56399999999996L258.0679999999999 48.656Z" fill="#34d399"/><path d="M274.60799999999995 24.32H280.3279999999999V55.519999999999996H289.73999999999995V60.72H274.60799999999995Z" fill="#34d399"/><path d="M298.16799999999995 29.52H292.188V24.32H309.86799999999994V29.52H303.888V60.72H298.16799999999995Z" fill="#34d399"/><path d="M313.82399999999996 24.32H319.5439999999999V39.14H325.67999999999995V24.32H331.4V60.72H325.67999999999995V44.34H319.5439999999999V60.72H313.82399999999996Z" fill="#34d399"/></svg>